<svg xmlns="http://www.w3.org/2000/svg" xmlns:xlink="http://www.w3.org/1999/xlink" version="1.1" width="160" height="160" viewBox="0 0 940 788" xml:space="preserve">
<rect x="0" y="0" width="100%" height="100%" fill="#ffffff"/>
<g transform="matrix(1 0 0 1 470 394)" style="" id="671178">
		
<path xml:space="preserve" font-family="Galada" font-size="136" style="stroke: none; stroke-width: 0; stroke-dasharray: none; stroke-linecap: butt; stroke-dashoffset: 0; stroke-linejoin: miter; stroke-miterlimit: 4; is-custom-font: none; font-file-url: none; fill: rgb(48,48,48); fill-rule: nonzero; opacity: 1; white-space: pre;" d="M-193.87-57.37L-193.87-57.37L-183.12 14.71L-168.30-59.01L-148.72-59.01L-170.34 42.72L-186.80 42.72L-198.36-28.41L-213.45 42.72L-233.04 42.72L-213.45-49.62Q-222.56-45.81-227.46-38.20Q-232.36-30.58-232.36-19.97L-232.36-19.97Q-232.36-17.39-232.02-15.49Q-231.68-13.58-230.86-11.81L-230.86-11.81Q-230.59-11.27-230.52-11.07Q-230.45-10.86-230.45-10.73L-230.45-10.73Q-238.07-10.73-241.54-13.92Q-245.00-17.12-245.00-23.92L-245.00-23.92Q-245.00-30.45-241.74-37.18Q-238.48-43.91-232.76-49.08L-232.76-49.08Q-227.32-54.11-220.59-56.69Q-213.86-59.28-206.52-59.28L-206.52-59.28Q-201.21-59.28-198.56-58.80Q-195.91-58.33-193.87-57.37ZM-110.77-19.02L-110.77-19.02L-110.77-18.07L-109.28-25.28L-89.69-25.28L-99.48 20.96Q-99.76 22.19-99.89 23.21Q-100.03 24.23-100.03 25.31L-100.03 25.31Q-100.03 28.31-98.67 29.73Q-97.31 31.16-94.45 31.16L-94.45 31.16Q-90.92 31.16-88.06 27.83Q-85.20 24.50-83.44 18.38L-83.44 18.38L-77.72 18.38Q-82.08 30.89-89.01 37.21Q-95.95 43.54-105.06 43.54L-105.06 43.54Q-110.91 43.54-114.38 40.27Q-117.84 37.01-118.39 31.03L-118.39 31.03Q-122.60 37.28-127.70 40.41Q-132.80 43.54-138.65 43.54L-138.65 43.54Q-147.08 43.54-151.91 37.83Q-156.74 32.11-156.74 21.64L-156.74 21.64Q-156.74 14.03-154.43 5.73Q-152.12-2.57-148.04-9.37L-148.04-9.37Q-143.00-17.39-136.34-21.67Q-129.68-25.96-121.79-25.96L-121.79-25.96Q-116.48-25.96-113.63-24.12Q-110.77-22.29-110.77-19.02ZM-118.52 18.38L-112.00-12.36Q-112.00-14.40-113.49-15.96Q-114.99-17.53-117.57-17.53L-117.57-17.53Q-125.05-17.53-130.83-5.01Q-136.61 7.50-136.61 19.74L-136.61 19.74Q-136.61 25.04-135.12 27.70Q-133.62 30.35-129.81 30.35L-129.81 30.35Q-126.28 30.35-122.94 26.95Q-119.61 23.55-118.52 18.38L-118.52 18.38ZM-1.43-56.01L-1.43-56.01Q2.65-56.01 6.87-56.76Q11.08-57.51 14.35-58.87L14.35-58.87Q14.21-50.17 9.93-45.88Q5.64-41.60-2.65-41.60L-2.65-41.60Q-6.60-41.60-11.42-42.28Q-16.25-42.96-23.73-44.59L-23.73-44.59L-42.50 42.72L-62.08 42.72L-42.77-47.31L-44.40-47.31Q-57.60-47.31-63.78-40.58Q-69.97-33.85-69.97-19.84L-69.97-19.84Q-69.97-17.25-69.63-15.35Q-69.29-13.45-68.48-11.68L-68.48-11.68Q-68.20-11.13-68.14-10.93Q-68.07-10.73-68.07-10.59L-68.07-10.59Q-75.68-10.59-79.15-13.79Q-82.62-16.98-82.62-23.78L-82.62-23.78Q-82.62-39.97-70.45-49.55Q-58.28-59.14-36.24-59.14L-36.24-59.14Q-31.76-59.14-27.61-58.80Q-23.46-58.46-16.93-57.51L-16.93-57.51Q-11.22-56.56-8.02-56.29Q-4.83-56.01-1.43-56.01ZM-7.68-2.84L3.47-57.10Q3.47-57.10 12.99-55.95Q22.51-54.79 27.95-54.79L27.95-54.79Q33.66-54.79 38.96-55.81Q44.27-56.83 49.98-59.14L49.98-59.14Q50.12-57.24 50.18-56.35Q50.25-55.47 50.25-54.65L50.25-54.65Q50.25-47.04 46.24-42.96Q42.23-38.88 34.61-38.88L34.61-38.88Q32.16-38.88 28.90-39.29Q25.64-39.69 19.11-41.05L19.11-41.05Q15.84-41.60 14.42-41.87Q12.99-42.14 11.90-42.28L11.90-42.28L6.46-17.66Q10.81-19.70 15.10-20.79Q19.38-21.88 23.46-21.88L23.46-21.88Q34.61-21.88 41.00-14.19Q47.40-6.51 47.40 6.27L47.40 6.27Q47.40 22.87 36.86 33.13Q26.32 43.40 7.96 43.40L7.96 43.40Q-4.15 43.40-10.06 38.51Q-15.98 33.61-15.98 23.82L-15.98 23.82Q-15.98 14.84-11.08 9.67Q-6.19 4.51 1.70 4.51L1.70 4.51Q5.78 4.51 8.23 6.27Q10.68 8.04 11.36 11.44L11.36 11.44Q5.51 12.12 2.31 15.52Q-0.88 18.92-0.88 24.50L-0.88 24.50Q-0.88 29.26 2.04 31.77Q4.96 34.29 10.27 34.29L10.27 34.29Q17.88 34.29 22.71 26.95Q27.54 19.60 27.54 9.27L27.54 9.27Q27.54-0.12 23.60-5.29Q19.65-10.45 12.58-10.45L12.58-10.45Q8.50-10.45 3.54-8.62Q-1.43-6.78-7.68-2.84L-7.68-2.84ZM75.00 30.35L75.00 30.35Q78.54 30.35 81.33 27.29Q84.12 24.23 85.88 18.38L85.88 18.38L95.13-25.28L114.72-25.28L104.92 20.96Q104.65 22.19 104.52 23.21Q104.38 24.23 104.38 25.31L104.38 25.31Q104.38 28.03 105.67 29.19Q106.96 30.35 109.96 30.35L109.96 30.35Q113.49 30.35 116.35 27.22Q119.20 24.09 120.97 18.38L120.97 18.38L126.68 18.38Q122.33 30.89 115.40 37.21Q108.46 43.54 99.35 43.54L99.35 43.54Q93.50 43.54 89.96 40.21Q86.43 36.88 85.88 30.62L85.88 30.62Q81.94 37.15 76.98 40.34Q72.01 43.54 65.76 43.54L65.76 43.54Q58.96 43.54 55.08 39.25Q51.20 34.97 51.20 27.22L51.20 27.22Q51.20 25.45 51.48 23.21Q51.75 20.96 52.29 18.38L52.29 18.38L61.54-25.28L81.12-25.28L71.33 20.96Q71.06 22.05 70.99 22.93Q70.92 23.82 70.92 24.77L70.92 24.77Q70.92 27.49 71.94 28.92Q72.96 30.35 75.00 30.35ZM139.06-49.76L139.06-49.76Q146.00-54.25 153.95-56.76Q161.91-59.28 169.52-59.28L169.52-59.28Q170.48-59.28 171.63-59.21Q172.79-59.14 174.96-59.01L174.96-59.01L166.12-17.39Q171.84-25.28 184.42-42.01Q197.00-58.73 197.00-58.60L197.00-58.60L211.28-58.60L173.47-15.08Q174.01-15.08 174.49-15.08Q174.96-15.08 176.05-15.21L176.05-15.21L178.23-15.21Q186.80-15.21 190.94-11.68Q195.09-8.14 195.09-0.66L195.09-0.66Q195.09 2.47 194.41 6.48Q193.73 10.49 191.42 18.65L191.42 18.65Q189.52 25.59 188.97 28.58Q188.43 31.57 188.43 33.75L188.43 33.75Q188.43 36.88 189.86 39.32Q191.28 41.77 193.73 42.72L193.73 42.72Q189.79 43.81 186.32 44.42Q182.85 45.03 180.27 45.03L180.27 45.03Q174.96 45.03 172.31 42.79Q169.66 40.55 169.66 35.92L169.66 35.92Q169.66 33.61 170.34 30.28Q171.02 26.95 173.06 19.19L173.06 19.19Q175.37 10.76 176.12 6.89Q176.87 3.01 176.87 0.15L176.87 0.15Q176.87-4.47 174.83-6.78Q172.79-9.09 168.71-9.09L168.71-9.09Q168.03-9.09 167.14-8.96Q166.26-8.82 164.22-8.55L164.22-8.55L153.34 42.72L133.76 42.72L153.48-49.76Q144.23-45.95 139.33-38.27Q134.44-30.58 134.44-19.97L134.44-19.97Q134.44-17.39 134.78-15.49Q135.12-13.58 135.93-11.81L135.93-11.81Q136.20-11.27 136.27-11.07Q136.34-10.86 136.34-10.73L136.34-10.73Q128.72-10.73 125.26-13.92Q121.79-17.12 121.79-23.92L121.79-23.92Q121.79-30.72 126.34-37.52Q130.90-44.32 139.06-49.76ZM210.60-42.14L212.23-48.40Q221.34-48.40 229.50-50.98Q237.66-53.57 246.77-59.01L246.77-59.01L225.15 42.72L205.56 42.72L223.52-42.14L210.60-42.14Z"/></g>
<g transform="matrix(1 0 0 1 601.2714 514.6152)" style="" id="415320">
		
<path xml:space="preserve" font-family="Lato" font-size="72" style="stroke: none; stroke-width: 0; stroke-dasharray: none; stroke-linecap: butt; stroke-dashoffset: 0; stroke-linejoin: miter; stroke-miterlimit: 4; is-custom-font: none; font-file-url: none; fill: rgb(48,48,48); fill-rule: nonzero; opacity: 1; white-space: pre;" d="M-16.36 22.62L-34.61 22.62L-34.61-28.97L-18.16-28.97Q-13.40-28.97-9.97-28.03Q-6.53-27.10-4.31-25.37Q-2.10-23.64-1.04-21.14Q0.02-18.64 0.02-15.51L0.02-15.51Q0.02-13.60-0.57-11.83Q-1.16-10.07-2.37-8.56Q-3.58-7.05-5.39-5.86Q-7.21-4.67-9.66-3.91L-9.66-3.91Q-4.01-2.80-1.13 0.15Q1.75 3.11 1.75 7.93L1.75 7.93Q1.75 11.21 0.55 13.91Q-0.66 16.61-2.98 18.55Q-5.30 20.49-8.67 21.56Q-12.04 22.62-16.36 22.62L-16.36 22.62ZM-16.50-0.89L-27.62-0.89L-27.62 17.07L-16.46 17.07Q-13.48 17.07-11.33 16.39Q-9.19 15.71-7.81 14.46Q-6.42 13.22-5.77 11.51Q-5.12 9.80-5.12 7.75L-5.12 7.75Q-5.12 3.75-7.95 1.43Q-10.78-0.89-16.50-0.89L-16.50-0.89ZM-27.62-23.46L-27.62-5.86L-18.41-5.86Q-15.46-5.86-13.30-6.51Q-11.14-7.15-9.71-8.31Q-8.29-9.46-7.61-11.10Q-6.92-12.73-6.92-14.68L-6.92-14.68Q-6.92-19.21-9.66-21.34Q-12.40-23.46-18.16-23.46L-18.16-23.46L-27.62-23.46ZM11.69-30.41L18.10-30.41L18.10 22.62L11.69 22.62L11.69-30.41ZM44.16-14.43L44.16-14.43Q48.16-14.43 51.38-13.09Q54.60-11.76 56.85-9.31Q59.10-6.87 60.31-3.39Q61.51 0.08 61.51 4.37L61.51 4.37Q61.51 8.69 60.31 12.14Q59.10 15.60 56.85 18.05Q54.60 20.49 51.38 21.81Q48.16 23.12 44.16 23.12L44.16 23.12Q40.16 23.12 36.94 21.81Q33.72 20.49 31.45 18.05Q29.18 15.60 27.96 12.14Q26.74 8.69 26.74 4.37L26.74 4.37Q26.74 0.08 27.96-3.39Q29.18-6.87 31.45-9.31Q33.72-11.76 36.94-13.09Q40.16-14.43 44.16-14.43ZM44.16 18.12L44.16 18.12Q49.56 18.12 52.22 14.50Q54.89 10.88 54.89 4.40L54.89 4.40Q54.89-2.11 52.22-5.75Q49.56-9.39 44.16-9.39L44.16-9.39Q41.42-9.39 39.41-8.45Q37.39-7.51 36.04-5.75Q34.69-3.99 34.03-1.41Q33.36 1.16 33.36 4.40L33.36 4.40Q33.36 7.64 34.03 10.20Q34.69 12.75 36.04 14.50Q37.39 16.25 39.41 17.18Q41.42 18.12 44.16 18.12ZM81.71-14.46L81.71-14.46Q84.08-14.46 86.15-13.94Q88.22-13.42 89.92-12.41L89.92-12.41L99.82-12.41L99.82-10.03Q99.82-8.85 98.30-8.52L98.30-8.52L94.16-7.95Q95.39-5.61 95.39-2.73L95.39-2.73Q95.39-0.06 94.36 2.12Q93.34 4.29 91.52 5.84Q89.70 7.39 87.20 8.22Q84.70 9.05 81.71 9.05L81.71 9.05Q79.15 9.05 76.88 8.43L76.88 8.43Q75.73 9.15 75.14 9.98Q74.54 10.81 74.54 11.60L74.54 11.60Q74.54 12.90 75.59 13.56Q76.63 14.23 78.36 14.52Q80.09 14.81 82.28 14.88Q84.48 14.95 86.77 15.11Q89.05 15.27 91.25 15.67Q93.44 16.07 95.17 16.97Q96.90 17.87 97.94 19.45Q98.99 21.03 98.99 23.55L98.99 23.55Q98.99 25.89 97.82 28.09Q96.65 30.29 94.45 32.00Q92.26 33.71 89.09 34.73Q85.92 35.76 81.92 35.76L81.92 35.76Q77.93 35.76 74.92 34.97Q71.92 34.17 69.94 32.84Q67.96 31.51 66.97 29.76Q65.98 28.02 65.98 26.11L65.98 26.11Q65.98 23.41 67.69 21.52Q69.40 19.63 72.38 18.51L72.38 18.51Q70.84 17.79 69.92 16.59Q69.00 15.38 69.00 13.37L69.00 13.37Q69.00 12.57 69.29 11.73Q69.58 10.88 70.17 10.05Q70.76 9.23 71.63 8.47Q72.49 7.71 73.64 7.14L73.64 7.14Q70.94 5.63 69.41 3.12Q67.88 0.62 67.88-2.73L67.88-2.73Q67.88-5.39 68.91-7.57Q69.94-9.75 71.77-11.28Q73.61-12.81 76.15-13.63Q78.68-14.46 81.71-14.46ZM93.08 24.60L93.08 24.60Q93.08 23.23 92.33 22.40Q91.57 21.57 90.28 21.12Q88.98 20.67 87.29 20.46Q85.60 20.24 83.72 20.15Q81.85 20.06 79.91 19.95Q77.96 19.85 76.20 19.56L76.20 19.56Q74.15 20.53 72.87 21.93Q71.59 23.34 71.59 25.28L71.59 25.28Q71.59 26.51 72.22 27.57Q72.85 28.63 74.15 29.40Q75.44 30.18 77.41 30.63Q79.37 31.08 82.03 31.08L82.03 31.08Q84.62 31.08 86.68 30.61Q88.73 30.14 90.15 29.28Q91.57 28.41 92.33 27.23Q93.08 26.04 93.08 24.60ZM81.71 4.80L81.71 4.80Q83.65 4.80 85.15 4.26Q86.64 3.72 87.65 2.75Q88.66 1.77 89.16 0.42Q89.66-0.93 89.66-2.55L89.66-2.55Q89.66-5.89 87.63-7.87Q85.60-9.85 81.71-9.85L81.71-9.85Q77.86-9.85 75.82-7.87Q73.79-5.89 73.79-2.55L73.79-2.55Q73.79-0.93 74.31 0.42Q74.83 1.77 75.84 2.75Q76.85 3.72 78.32 4.26Q79.80 4.80 81.71 4.80Z"/></g>
</svg>